<svg xmlns="http://www.w3.org/2000/svg" xmlns:xlink="http://www.w3.org/1999/xlink" width="500" zoomAndPan="magnify" viewBox="0 0 375 374.999991" height="500" preserveAspectRatio="xMidYMid meet" version="1.0"><defs><g/><clipPath id="id1"><path d="M 107.1875 246 L 267.6875 246 L 267.6875 304.332031 L 107.1875 304.332031 Z M 107.1875 246 " clip-rule="nonzero"/></clipPath><clipPath id="id2"><path d="M 107.1875 70.332031 L 267.6875 70.332031 L 267.6875 298 L 107.1875 298 Z M 107.1875 70.332031 " clip-rule="nonzero"/></clipPath><clipPath id="id3"><path d="M 107.1875 70.332031 L 128 70.332031 L 128 298 L 107.1875 298 Z M 107.1875 70.332031 " clip-rule="nonzero"/></clipPath><clipPath id="id4"><path d="M 211 70.332031 L 242 70.332031 L 242 105 L 211 105 Z M 211 70.332031 " clip-rule="nonzero"/></clipPath></defs><rect x="-37.5" width="450" fill="rgb(100%, 100%, 100%)" y="-37.499999" height="449.999989" fill-opacity="1"/><rect x="-37.5" width="450" fill="rgb(74.508667%, 93.728638%, 100%)" y="-37.499999" height="449.999989" fill-opacity="1"/><rect x="-37.5" width="450" fill="rgb(100%, 100%, 100%)" y="-37.499999" height="449.999989" fill-opacity="1"/><rect x="-37.5" width="450" fill="rgb(74.508667%, 93.728638%, 100%)" y="-37.499999" height="449.999989" fill-opacity="1"/><g clip-path="url(#id1)"><path fill="rgb(92.549133%, 6.269836%, 30.198669%)" d="M 107.539062 246.117188 L 267.453125 246.117188 L 267.453125 298.570312 C 267.453125 301.753906 264.875 304.332031 261.6875 304.332031 L 126.210938 304.332031 C 115.894531 304.332031 107.539062 295.980469 107.539062 285.683594 L 107.539062 246.117188 " fill-opacity="1" fill-rule="nonzero"/></g><g clip-path="url(#id2)"><path fill="rgb(94.509888%, 29.019165%, 39.608765%)" d="M 263.042969 70.332031 L 121.933594 70.332031 C 113.980469 70.332031 107.539062 76.769531 107.539062 84.703125 L 107.539062 283.105469 C 107.539062 291.039062 113.980469 297.488281 121.933594 297.488281 L 264.125 297.488281 L 262.210938 291.574219 L 260.988281 287.773438 L 254.890625 268.945312 L 263.042969 268.945312 C 265.480469 268.945312 267.453125 266.972656 267.453125 264.550781 L 267.453125 74.726562 C 267.453125 72.304688 265.480469 70.332031 263.042969 70.332031 " fill-opacity="1" fill-rule="nonzero"/></g><g clip-path="url(#id3)"><path fill="rgb(92.549133%, 6.269836%, 30.198669%)" d="M 127.375 70.332031 L 121.933594 70.332031 C 113.980469 70.332031 107.539062 76.769531 107.539062 84.703125 L 107.539062 283.105469 C 107.539062 291.039062 113.980469 297.488281 121.933594 297.488281 L 127.375 297.488281 L 127.375 70.332031 " fill-opacity="1" fill-rule="nonzero"/></g><path fill="rgb(100%, 100%, 100%)" d="M 264.125 268.945312 L 125.628906 268.945312 C 118.199219 268.945312 112.113281 275.027344 112.113281 282.464844 L 112.113281 283.972656 C 112.113281 291.394531 118.199219 297.488281 125.628906 297.488281 L 264.125 297.488281 L 264.125 268.945312 " fill-opacity="1" fill-rule="nonzero"/><g clip-path="url(#id4)"><path fill="rgb(12.548828%, 19.999695%, 37.249756%)" d="M 241.183594 104.574219 L 226.328125 95.441406 L 211.480469 104.574219 L 211.480469 70.332031 L 241.183594 70.332031 L 241.183594 104.574219 " fill-opacity="1" fill-rule="nonzero"/></g><g fill="rgb(0%, 0%, 0%)" fill-opacity="1"><g transform="translate(155.087486, 201.749987)"><g><path d="M 19.578125 0 L 18.234375 -5.078125 L 9.421875 -5.078125 L 8.046875 0 L 0 0 L 8.84375 -27.234375 L 18.625 -27.234375 L 27.59375 0 Z M 16.71875 -11.09375 L 15.546875 -15.546875 C 15.273438 -16.535156 14.941406 -17.816406 14.546875 -19.390625 C 14.160156 -20.960938 13.90625 -22.085938 13.78125 -22.765625 C 13.675781 -22.140625 13.457031 -21.101562 13.125 -19.65625 C 12.800781 -18.207031 12.078125 -15.351562 10.953125 -11.09375 Z M 16.71875 -11.09375 "/></g></g></g><g fill="rgb(0%, 0%, 0%)" fill-opacity="1"><g transform="translate(182.672631, 201.749987)"><g><path d="M 22.625 -18.5 C 22.625 -15.46875 21.726562 -13.125 19.9375 -11.46875 C 18.144531 -9.820312 15.609375 -9 12.328125 -9 L 10.265625 -9 L 10.265625 0 L 2.9375 0 L 2.9375 -27.125 L 12.328125 -27.125 C 15.742188 -27.125 18.3125 -26.375 20.03125 -24.875 C 21.757812 -23.382812 22.625 -21.257812 22.625 -18.5 Z M 10.265625 -14.96875 L 11.59375 -14.96875 C 12.695312 -14.96875 13.570312 -15.273438 14.21875 -15.890625 C 14.875 -16.515625 15.203125 -17.375 15.203125 -18.46875 C 15.203125 -20.289062 14.1875 -21.203125 12.15625 -21.203125 L 10.265625 -21.203125 Z M 10.265625 -14.96875 "/></g></g></g><g fill="rgb(0%, 0%, 0%)" fill-opacity="1"><g transform="translate(206.677459, 201.749987)"><g><path d="M 2.9375 0 L 2.9375 -27.125 L 10.296875 -27.125 L 10.296875 0 Z M 2.9375 0 "/></g></g></g></svg>